<?xml version="1.0" encoding="UTF-8"?><svg id="Layer_2" xmlns="http://www.w3.org/2000/svg" xmlns:xlink="http://www.w3.org/1999/xlink" viewBox="0 0 1285.53 990.29"><defs><style>.cls-1{fill:url(#linear-gradient);stroke:#29aae1;}.cls-1,.cls-2,.cls-3,.cls-4,.cls-5{stroke-miterlimit:10;stroke-width:8px;}.cls-2{fill:#fff;stroke:#0071bb;}.cls-3{fill:none;stroke:#00a1ff;}.cls-4{fill:url(#linear-gradient-2);}.cls-4,.cls-5{stroke:#2ea7e1;}.cls-5{fill:url(#linear-gradient-3);}</style><linearGradient id="linear-gradient" x1="159.28" y1="378" x2="1056.42" y2="378" gradientUnits="userSpaceOnUse"><stop offset=".04" stop-color="#309bff"/><stop offset="1" stop-color="#3dddec" stop-opacity="0"/></linearGradient><linearGradient id="linear-gradient-2" x1="259.67" y1="771.8" x2="432.86" y2="771.8" gradientUnits="userSpaceOnUse"><stop offset="0" stop-color="#309bff"/><stop offset="1" stop-color="#3dddec" stop-opacity="0"/></linearGradient><linearGradient id="linear-gradient-3" x1="802.07" y1="793.76" x2="975.25" y2="793.76" xlink:href="#linear-gradient-2"/></defs><path class="cls-1" d="m964.91,259.43c5.55-10.24,11.62-26.17,8.44-44.09-7.21-40.64-58.1-69.93-90.07-58.29-8.39,3.06-14.13,8.7-17.61,12.88-38.25-23.69-124.97-70.29-245.06-74.73-115.84-4.28-203.15,32.87-243.28,53.04-45.17-16.99-90.75-6.56-110.21,21.23-9.67,13.81-21.16,43.72-9.47,67.84,1.6,3.3,3.33,5.87,4.68,7.68-47.95,40.82-108.39,107-102.68,181.35,10.95,142.55,258.71,232.43,442.21,234.75,190.77,2.41,441.46-87.93,454.07-229.28,2.45-27.5-1.11-90.41-91.02-172.38Z"/><circle class="cls-4" cx="346.26" cy="771.8" r="86.59"/><circle class="cls-2" cx="821.7" cy="417.21" r="45.59"/><circle class="cls-2" cx="402.55" cy="416.21" r="45.59"/><path class="cls-3" d="m369.5,619.01c102.38.78,204.76,1.57,307.13,2.35,54.23.42,108.46.83,162.7,1.25"/><circle class="cls-5" cx="888.66" cy="793.76" r="86.59"/></svg>