<?xml version="1.0" encoding="UTF-8"?><svg id="Layer_2" xmlns="http://www.w3.org/2000/svg" viewBox="0 0 1080 1080"><defs><style>.cls-1{stroke-width:15px;}.cls-1,.cls-2,.cls-3{fill:none;stroke:#000;stroke-miterlimit:10;}.cls-2{stroke-width:17px;}.cls-3{stroke-width:18px;}</style></defs><path class="cls-2" d="m907.62,269.51c5.17-10.43,10.66-26.58,6.83-44.37-8.69-40.35-60.62-67.76-92.14-54.96-8.28,3.36-13.8,9.21-17.13,13.52-39.09-22.28-127.45-65.67-247.63-65.72-115.92-.04-201.82,40.27-241.18,61.9-45.76-15.33-90.93-3.24-109.36,25.25-9.16,14.15-19.55,44.46-6.98,68.14,1.72,3.24,3.54,5.75,4.96,7.5-46.43,42.55-104.4,110.89-95.98,184.98,16.15,142.05,267.03,222.82,450.5,218.42,190.73-4.57,437.95-104.01,445.38-245.73,1.45-27.57-4.42-90.31-97.27-168.94Z"/><circle class="cls-2" cx="318.22" cy="803.79" r="86.59"/><circle class="cls-1" cx="828.6" cy="788.91" r="86.59"/><circle class="cls-3" cx="770.27" cy="432.41" r="45.59"/><circle class="cls-3" cx="351.37" cy="446.74" r="45.59"/><path class="cls-3" d="m277.31,633.73c123.77-3.58,247.55-7.16,371.32-10.74,65.57-1.9,131.13-3.79,196.7-5.69"/></svg>