<?xml version="1.0" encoding="UTF-8"?><svg id="Layer_2" xmlns="http://www.w3.org/2000/svg" xmlns:xlink="http://www.w3.org/1999/xlink" viewBox="0 0 1320.56 1007.31"><defs><style>.cls-1{fill:url(#linear-gradient);}.cls-1,.cls-2,.cls-3,.cls-4,.cls-5{stroke:#15e3ff;stroke-miterlimit:10;stroke-width:8px;}.cls-2{fill:url(#Blue_Sky);}.cls-3{fill:#fff;}.cls-4{fill:url(#Blue_Sky-2);}.cls-5{fill:none;}</style><linearGradient id="linear-gradient" x1="180.26" y1="372.5" x2="1077.4" y2="372.5" gradientUnits="userSpaceOnUse"><stop offset="0" stop-color="#3dddec"/><stop offset="1" stop-color="#3dddec" stop-opacity="0"/></linearGradient><linearGradient id="Blue_Sky" x1="280.65" y1="766.3" x2="453.83" y2="766.3" gradientUnits="userSpaceOnUse"><stop offset="0" stop-color="#3dddec"/><stop offset="1" stop-color="#3dddec" stop-opacity="0"/></linearGradient><linearGradient id="Blue_Sky-2" x1="797.91" y1="772.93" x2="971.09" y2="772.93" xlink:href="#Blue_Sky"/></defs><path class="cls-1" d="m985.89,253.93c5.55-10.24,11.62-26.17,8.44-44.09-7.21-40.64-58.1-69.93-90.07-58.29-8.39,3.06-14.13,8.7-17.61,12.88-38.25-23.69-124.97-70.29-245.06-74.73-115.84-4.28-203.15,32.87-243.28,53.04-45.17-16.99-90.75-6.56-110.21,21.23-9.67,13.81-21.16,43.72-9.47,67.84,1.6,3.3,3.33,5.87,4.68,7.68-47.95,40.82-108.39,107-102.68,181.35,10.95,142.55,258.71,232.43,442.21,234.75,190.77,2.41,441.46-87.93,454.07-229.28,2.45-27.5-1.11-90.41-91.02-172.38Z"/><circle class="cls-2" cx="367.24" cy="766.3" r="86.59"/><circle class="cls-4" cx="884.5" cy="772.93" r="86.59"/><circle class="cls-3" cx="842.67" cy="411.7" r="45.59"/><circle class="cls-3" cx="423.53" cy="410.7" r="45.59"/><path class="cls-5" d="m390.48,613.5c102.38.78,204.76,1.57,307.13,2.35,54.23.42,108.46.83,162.7,1.25"/></svg>