<?xml version="1.0" standalone="no"?>
<!DOCTYPE svg PUBLIC "-//W3C//DTD SVG 20010904//EN"
 "http://www.w3.org/TR/2001/REC-SVG-20010904/DTD/svg10.dtd">
<svg version="1.0" xmlns="http://www.w3.org/2000/svg"
 width="148.000000pt" height="96.000000pt" viewBox="0 0 148.000000 96.000000"
 preserveAspectRatio="xMidYMid meet">
<metadata>
Created by potrace 1.10, written by Peter Selinger 2001-2011
</metadata>
<g transform="translate(0.000000,96.000000) scale(0.100000,-0.100000)"
fill="#000000" stroke="none">
<path d="M613 895 c-34 -7 -97 -29 -140 -48 -59 -26 -87 -33 -115 -30 -33 5
-42 1 -73 -30 -28 -28 -35 -43 -35 -74 0 -29 -9 -52 -30 -82 -83 -114 -67
-215 45 -289 42 -27 189 -82 300 -111 112 -29 346 -18 415 19 10 5 20 6 24 3
3 -3 6 -1 6 5 0 16 -19 15 -113 -3 -103 -20 -221 -19 -329 2 -49 9 -86 18 -84
20 9 9 519 4 528 -5 11 -11 105 23 173 62 85 50 135 138 119 209 -7 33 -46
101 -64 112 -5 3 -10 27 -10 53 -1 73 -50 120 -115 108 -25 -5 -48 1 -96 24
-135 65 -276 84 -406 55z m307 -44 c36 -12 87 -36 114 -52 34 -21 52 -27 59
-20 6 6 25 11 42 11 50 0 82 -49 65 -96 -9 -23 -6 -31 25 -66 104 -114 65
-213 -117 -298 l-66 -31 -318 3 -319 3 -66 31 c-81 39 -136 91 -145 139 -8 43
32 131 75 168 26 21 27 26 16 47 -15 29 -2 75 25 90 25 13 63 13 77 -1 9 -9
19 -6 41 10 122 87 337 114 492 62z"/>
<path d="M450 550 c-43 -43 -12 -113 50 -113 60 0 90 61 54 111 -20 29 -76 30
-104 2z m64 -16 c30 -12 14 -64 -19 -64 -2 0 -11 7 -20 16 -15 15 -15 18 1 35
20 22 17 21 38 13z"/>
<path d="M930 550 c-60 -60 26 -153 93 -100 33 26 37 78 9 103 -25 23 -78 21
-102 -3z m80 -31 c22 -40 -33 -69 -57 -29 -10 15 -10 22 3 35 21 21 41 19 54
-6z"/>
<path d="M350 229 c-53 -21 -85 -107 -58 -159 17 -32 74 -70 105 -70 34 0 77
27 97 61 58 99 -36 209 -144 168z m102 -39 c48 -37 41 -118 -13 -145 -40 -21
-63 -19 -98 11 -88 74 21 205 111 134z"/>
<path d="M1046 211 c-20 -20 -30 -43 -33 -74 -5 -40 -2 -48 28 -81 80 -86 211
-27 196 88 -8 60 -52 96 -115 96 -40 0 -53 -5 -76 -29z m123 -6 c79 -40 46
-165 -44 -165 -39 0 -65 18 -81 55 -17 43 -3 90 35 110 34 18 55 18 90 0z"/>
</g>
</svg>
